<?xml version="1.0" encoding="utf-8"?>
<!-- Generator: Adobe Illustrator 22.0.1, SVG Export Plug-In . SVG Version: 6.00 Build 0)  -->
<svg version="1.1" id="Laag_1" xmlns="http://www.w3.org/2000/svg" xmlns:xlink="http://www.w3.org/1999/xlink" x="0px" y="0px"
	 viewBox="0 0 48.3 47.8" style="enable-background:new 0 0 48.3 47.8;" xml:space="preserve">
<style type="text/css">
	.st0{fill:#FFFFFF;}
</style>
<g>
	<path class="st0" d="M21.2,23.6l-0.1,0.8h0.8l-0.4,3.9h-0.8l-0.1,0.8h3l0.1-0.8h-0.5l0.4-3.4c0.4-0.3,0.7-0.4,1-0.4
		c0.4,0,0.6,0.3,0.5,0.8l-0.3,3h-0.4l-0.1,0.8h3l0.1-0.8h-0.7l0.3-3.1c0.1-1.1-0.4-1.8-1.4-1.8c-0.6,0-1.3,0.3-1.9,0.8l0.1-0.6H21.2
		z"/>
	<path class="st0" d="M43.1,25.7c-0.8-0.5-0.9-0.6-0.9-1c0-0.3,0.3-0.5,0.6-0.5c0.5,0,0.8,0.3,0.9,0.8h0.5l0.2-1.6h-0.6l0,0.3
		c-0.3-0.2-0.7-0.3-1.1-0.3c-1.1,0-2,0.7-2.1,1.7c0,0.5,0.1,0.9,0.5,1.3c0.1,0.1,0.4,0.3,0.7,0.6c0.1,0.1,0.2,0.2,0.3,0.3
		c0.4,0.3,0.5,0.4,0.5,0.7c0,0.3-0.3,0.5-0.6,0.5c-0.6,0-1-0.4-1.1-1.1h-0.5l-0.2,1.8h0.5l0.2-0.3c0.3,0.2,0.7,0.3,1.3,0.3
		c1.2,0,2.1-0.7,2.2-1.7C44.4,26.8,44.1,26.4,43.1,25.7z"/>
	<path class="st0" d="M31.7,21.9l-1.9,0.9l-0.1,0.7h-0.9l-0.1,0.8l0,0h0.9l-0.3,2.9c-0.1,1.1,0.5,1.8,1.6,1.8c0.7,0,1.1-0.1,1.6-0.4
		c0,0,0.1,0,0.1-0.1L32.5,28c-0.6,0.3-0.8,0.3-1.1,0.1l0,0c-0.2-0.1-0.2-0.5-0.2-1.1l0.3-2.7h1.5l0.1-0.8h-1.5L31.7,21.9z"/>
	<polygon class="st0" points="37.8,24.4 38.5,24.4 37,27 36.3,24.4 36.9,24.4 37,23.6 33.9,23.6 33.8,24.4 34.6,24.4 35.7,28.9 
		33.8,32.1 35.4,32.1 39.2,24.4 39.8,24.4 39.9,23.6 37.9,23.6 	"/>
	<path class="st0" d="M9.3,17.6c0,0,3.4-1,6.1-0.9c2.9,0.1,5.6,1,6.1,1.2c0.4,0.1,0.8,0.1,0.9-0.3c0.1-0.2,0.1-0.6-0.6-1.2
		c-2-1.8-4.5-2.4-4.5-2.4c-3.7-3.8-6.9-4.4-6.9-4.4c1.1,1.2,1.6,4.2,1.2,4.3c-6.1,1.9-7.8,5.6-7.8,5.6c0.4-0.4,2.3-2.1,6.6-2.9
		C9.9,17.1,9.3,17.6,9.3,17.6z"/>
	<path class="st0" d="M13.7,10.2c1.9,1,3.6,3.3,3.6,3.3c-0.5-2.3-3.7-6.7-3.7-6.4C13.9,8.7,13.7,10.2,13.7,10.2z"/>
	<path class="st0" d="M8.2,21.6l-0.1,0.8h0.8l-0.3,2.7l0,0l0,0c-1-0.1-1.9-0.3-2.7-0.6c-1-0.4-2.1-1-2.4-2c-0.4-1.3,0.5-2.4,1.2-2.9
		l0,1.2c0.3-1.1,1.2-2.1,1.2-2.1c-2.1,1.2-2.8,2.3-3,3.1c-0.1,0.4-0.1,0.7,0,1C3,23.5,3.4,24,4,24.5c1.2,1,2.8,1.5,4.5,1.7l0,0l0,0
		l-0.2,2.1H7.6l-0.1,0.8h3.4l0.1-0.8h-0.8l0.2-2l0,0l0,0c0.7,0,1.7,0,1.7,0l0.2-1.8h-0.5l-0.2,0.6c-0.4,0-0.9,0-1.1,0l0,0l0,0l0-0.2
		l0.3-2.5h2l-0.1,1h0.8l0.2-1.8H8.2z"/>
	<path class="st0" d="M17.1,23.5c1.8,0,3,1.2,2.8,2.9c-0.1,0.8-0.4,1.5-1.1,2c-0.7,0.6-1.4,0.8-2.4,0.8c-1.8,0-3-1.2-2.8-2.8
		C13.8,24.7,15.3,23.5,17.1,23.5z M15.6,26.4c-0.2,1.4,0.1,2.2,0.9,2.2c0.8,0,1.2-0.7,1.4-2.2c0.2-1.4-0.2-2.2-0.9-2.2
		C16.2,24.2,15.8,24.9,15.6,26.4z"/>
</g>
</svg>
